<?xml version="1.0" standalone="no"?>
<!DOCTYPE svg PUBLIC "-//W3C//DTD SVG 20010904//EN"
 "http://www.w3.org/TR/2001/REC-SVG-20010904/DTD/svg10.dtd">
<svg version="1.0" xmlns="http://www.w3.org/2000/svg"
 width="192.000000pt" height="192.000000pt" viewBox="0 0 192.000000 192.000000"
 preserveAspectRatio="xMidYMid meet">
<metadata>
Created by potrace 1.14, written by Peter Selinger 2001-2017
</metadata>
<g transform="translate(0.000000,192.000000) scale(0.100000,-0.100000)"
fill="#000000" stroke="none">
<path d="M763 1905 c-29 -7 -61 -16 -70 -20 -10 -5 -22 -9 -28 -10 -5 -1 -12
-3 -15 -4 -3 -2 -14 -4 -25 -6 -11 -2 -21 -9 -23 -15 -2 -5 -8 -8 -13 -5 -16
11 -220 -112 -239 -144 -5 -9 -10 -12 -10 -8 -1 24 -152 -151 -207 -238 -29
-47 -118 -258 -114 -272 1 -2 1 -4 0 -5 -9 -28 -12 -82 -13 -218 0 -158 3
-195 19 -232 4 -9 4 -21 1 -27 -4 -5 -2 -12 4 -16 6 -4 8 -11 5 -16 -4 -5 -1
-9 4 -9 6 0 11 -11 11 -25 0 -14 4 -25 10 -25 5 0 9 -3 8 -7 -4 -13 24 -75 64
-142 21 -34 38 -67 38 -73 0 -5 4 -6 10 -3 5 3 10 0 10 -7 0 -7 22 -36 49 -65
27 -29 46 -55 43 -58 -3 -3 0 -5 7 -5 7 0 18 -6 25 -13 45 -43 86 -76 86 -70
1 5 9 -1 18 -12 10 -11 24 -21 32 -23 8 -2 17 -7 20 -10 8 -12 90 -54 90 -47
0 4 7 -1 16 -9 8 -9 26 -16 39 -16 13 0 26 -4 29 -9 3 -4 20 -12 38 -16 18 -4
40 -10 48 -13 8 -3 105 -7 216 -9 179 -2 207 -1 270 18 38 11 75 21 82 22 6 0
12 3 12 7 0 3 23 14 50 24 28 10 57 23 63 30 7 6 31 21 53 33 51 27 93 62 171
143 77 80 103 109 103 116 0 3 16 29 35 59 36 56 80 154 87 190 1 11 6 23 11
26 4 3 9 20 10 37 1 18 5 32 8 32 9 0 10 13 16 180 3 101 1 174 -7 210 -12 59
-36 142 -50 175 -5 11 -14 35 -22 53 -7 17 -16 32 -20 32 -5 0 -7 3 -6 8 4 12
-42 92 -53 92 -6 0 -7 5 -4 10 3 6 1 10 -6 10 -7 0 -10 3 -6 6 3 3 -8 19 -24
35 -16 16 -26 29 -22 29 4 0 -28 34 -72 75 -43 41 -82 75 -86 75 -4 0 -14 6
-21 13 -24 23 -174 108 -198 112 -3 0 -30 9 -60 20 -30 10 -59 20 -65 21 -5 1
-23 6 -40 10 -55 14 -336 13 -392 -1z"/>
</g>
</svg>
